{
  "title": "Beiimaan Love - 2016 - 720p - DesiScr Rip - 1CD - x264 - AAC - M",
  "uid": 16043579,
  "size": 731634721,
  "categoryP": "video",
  "categoryS": "movies",
  "magnet": "?xt=urn:btih:2c80e5b1b89bc2f5c683cacfc83b527ed899d3da&amp;dn=Beiimaan+Love+-+2016+-+720p+-+DesiScr+Rip+-+1CD+-+x264+-+AAC+-+M&amp;tr=udp%3A%2F%2Ftracker.leechers-paradise.org%3A6969&amp;tr=udp%3A%2F%2Fzer0day.ch%3A1337&amp;tr=udp%3A%2F%2Fopen.demonii.com%3A1337&amp;tr=udp%3A%2F%2Ftracker.coppersurfer.tk%3A6969&amp;tr=udp%3A%2F%2Fexodus.desync.com%3A6969",
  "seeders": 76,
  "leechers": 225,
  "uploader": "makintos13",
  "files": 1,
  "time": 1476538861,
  "description": "Beiimaan Love - 2016 - 720p - DesiScr Rip - 1CD - x264 - AAC - Makintos13\r\n\r\nScreeNS:\r\n \nhttps://imgmak.com/image/a8E\r\n \nhttps://imgmak.com/image/a8V\r\n \nhttps://imgmak.com/image/a8e\r\n \nhttps://imgmak.com/image/a8o\r\n \nhttps://imgmak.com/image/a8Q\r\n\r\n\r\nFormat : Matroska\r\nFormat version : Version 4 / Version 2\r\nFile size : 698 MiB\r\nDuration : 2 h 0 min\r\n\r\nVideo\r\nID : 1\r\nFormat : AVC\r\nFormat/Info : Advanced Video Codec\r\nFormat profile :   \r\nFormat settings, CABAC : Yes\r\nFormat settings, ReFrames : 4 frames\r\nCodec ID : V_MPEG4/ISO/AVC\r\nDuration : 2 h 0 min\r\nBit rate : 743 kb/s\r\nWidth : 1 280 pixels\r\nHeight : 544 pixels\r\nDisplay aspect ratio : 2.35:1\r\nFrame rate mode : Constant\r\nFrame rate : 29.970 (30000/1001) FPS\r\nColor space : YUV\r\nChroma subsampling : 4:2:0\r\nBit depth : 8 bits\r\nScan type : Progressive\r\nBits/(Pixel*Frame) : 0.036\r\nStream size : 640 MiB (92%)\r\nDefault : Yes\r\nForced : No\r\n\r\nAudio\r\nID : 2\r\nFormat : AAC\r\nFormat/Info : Advanced Audio Codec\r\nFormat profile : LC\r\nCodec ID : A_AAC\r\nDuration : 2 h 0 min\r\nBit rate : 64.3 kb/s\r\nChannel(s) : 2 channels\r\nChannel positions : Front: L R\r\nSampling rate : 48.0 kHz\r\nFrame rate : 46.875 FPS (1024 spf)\r\nCompression mode : Lossy\r\nDelay relative to video : 46 ms\r\nStream size : 55.4 MiB (8%)\r\nTitle : Stereo\r\nLanguage : Hindi\r\nDefault : Yes\r\nForced : No\r\n\r\nSource : DH (thanks)",
  "parsed": {
    "xt": "urn:btih:2c80e5b1b89bc2f5c683cacfc83b527ed899d3da",
    "dn": "Beiimaan Love - 2016 - 720p - DesiScr Rip - 1CD - x264 - AAC - M",
    "tr": [
      "udp://exodus.desync.com:6969",
      "udp://open.demonii.com:1337",
      "udp://tracker.coppersurfer.tk:6969",
      "udp://tracker.leechers-paradise.org:6969",
      "udp://zer0day.ch:1337"
    ],
    "infoHash": "2c80e5b1b89bc2f5c683cacfc83b527ed899d3da",
    "infoHashBuffer": {
      "type": "Buffer",
      "data": [
        44,
        128,
        229,
        177,
        184,
        155,
        194,
        245,
        198,
        131,
        202,
        207,
        200,
        59,
        82,
        126,
        216,
        153,
        211,
        218
      ]
    },
    "name": "Beiimaan Love - 2016 - 720p - DesiScr Rip - 1CD - x264 - AAC - M",
    "announce": [
      "udp://exodus.desync.com:6969",
      "udp://open.demonii.com:1337",
      "udp://tracker.coppersurfer.tk:6969",
      "udp://tracker.leechers-paradise.org:6969",
      "udp://zer0day.ch:1337"
    ],
    "urlList": []
  },
  "previous": 301,
  "peers": 24,
  "last_updated": "2016-12-24T20:55:45.883Z"
}